<svg width="10" height="6" viewBox="0 0 10 6" fill="none" xmlns="http://www.w3.org/2000/svg">
<path d="M5 4.97458L0.639015 0.12457C0.603871 0.084639 0.562147 0.0530705 0.516257 0.0316911C0.470368 0.0103111 0.421224 -0.000455398 0.37167 1.52425e-05C0.322116 0.000485406 0.273136 0.0121837 0.227564 0.0344314C0.181991 0.0566797 0.140732 0.089036 0.106173 0.129629C0.0716143 0.170222 0.0444422 0.218244 0.0262293 0.270918C0.00801644 0.323592 -0.000875646 0.379872 6.76683e-05 0.4365C0.00101098 0.493127 0.011771 0.548978 0.0317249 0.600822C0.0516789 0.652665 0.0804306 0.699471 0.116316 0.73853L4.73865 5.87867C4.80862 5.95647 4.90238 6 5 6C5.09762 6 5.19138 5.95647 5.26135 5.87867L9.88368 0.73853C9.91957 0.69947 9.94832 0.652665 9.96827 0.600822C9.98823 0.548978 9.99899 0.493126 9.99993 0.436499C10.0009 0.379871 9.99198 0.323592 9.97377 0.270917C9.95556 0.218244 9.92839 0.170221 9.89383 0.129628C9.85927 0.0890356 9.81801 0.0566793 9.77244 0.034431C9.72686 0.0121832 9.67788 0.000484997 9.62833 1.48379e-05C9.57878 -0.000455798 9.52963 0.0103107 9.48374 0.0316907C9.43785 0.0530701 9.39613 0.0846387 9.36098 0.124569L5 4.97458Z" fill="white"/>
</svg>
