<svg width="90" height="18" viewBox="0 0 90 18" fill="none" xmlns="http://www.w3.org/2000/svg">
<path d="M1.42451 18H16.0298V0.0455151H1.42451C1.04669 0.0455151 0.684324 0.195972 0.417169 0.463795C0.150014 0.731618 0 1.09487 0 1.47363V16.5939C0.00578394 16.9689 0.158347 17.3265 0.424878 17.5895C0.691408 17.8526 1.05048 18 1.42451 18Z" fill="#C90C0F"/>
<path d="M17.9537 18L23.439 10.5429C23.8846 9.93758 24.124 9.20456 24.1219 8.45226V1.47366C24.1229 1.28646 24.0869 1.10092 24.0161 0.927698C23.9453 0.754474 23.8411 0.596984 23.7094 0.464275C23.5777 0.331565 23.4212 0.226249 23.2488 0.154389C23.0763 0.0825302 22.8914 0.0455431 22.7047 0.0455456H17.9537V18Z" fill="#C90C0F"/>
<path d="M36.9327 7.65334L34.2823 4.52606H33.3762V7.65334H31.4996V0.0160217H33.3762V3.11115H34.2382L36.7362 0.0160217H38.9495L35.7218 3.71409L39.2222 7.66943L36.9327 7.65334Z" fill="black"/>
<path d="M40.2687 7.65334V0.0160217H42.1452V7.65334H40.2687Z" fill="black"/>
<path d="M50.6095 0V1.54354H47.8829V7.6534H45.9984V1.54354H43.2719V0H50.6095Z" fill="black"/>
<path d="M56.696 7.65334L56.1065 6.01333H52.4137L51.8243 7.65334H50.0079L52.8948 0.0160217H55.7016L58.6045 7.65334H56.696ZM52.943 4.5944H55.5934L54.2742 0.908383L52.943 4.5944Z" fill="black"/>
<path d="M32.6784 15.0053C32.7746 15.8937 33.4482 16.3398 34.7072 16.3398C35.1159 16.3492 35.523 16.2866 35.9101 16.1549C36.2429 16.0303 36.4113 15.8374 36.4113 15.5761C36.4118 15.482 36.3872 15.3895 36.3399 15.3082C36.2927 15.2269 36.2246 15.1598 36.1427 15.1138C35.8678 14.9566 35.5722 14.8389 35.2646 14.7641L33.1395 14.1853C31.8725 13.8356 31.2429 13.1442 31.2429 12.1072C31.2289 11.6342 31.3936 11.1733 31.704 10.8168C32.017 10.4657 32.4209 10.2083 32.8708 10.0732C33.3917 9.92105 33.9323 9.84788 34.4747 9.85615C35.338 9.82217 36.1915 10.049 36.9246 10.5073C37.2328 10.7075 37.4901 10.9772 37.6759 11.2947C37.8618 11.6122 37.9711 11.9689 37.9952 12.3363L36.2309 12.4247C36.2049 12.2631 36.1464 12.1084 36.0588 11.9702C35.9713 11.832 35.8566 11.7131 35.7217 11.6208C35.335 11.3819 34.8838 11.2695 34.4306 11.2992C34.0972 11.2842 33.7649 11.3475 33.4603 11.4841C33.3593 11.5254 33.2726 11.5954 33.2106 11.6853C33.1487 11.7752 33.1142 11.8813 33.1114 11.9906C33.1125 12.0784 33.1351 12.1645 33.177 12.2416C33.2189 12.3186 33.279 12.3843 33.352 12.4327C33.5813 12.5829 33.8351 12.6918 34.1018 12.7543L36.1307 13.301C36.7188 13.4292 37.2684 13.695 37.7345 14.0768C37.9153 14.2509 38.0565 14.462 38.1485 14.6958C38.2405 14.9295 38.2812 15.1804 38.2678 15.4314C38.2851 15.7869 38.204 16.1402 38.0335 16.4523C37.8629 16.7645 37.6096 17.0233 37.3015 17.2C36.4932 17.6286 35.5843 17.83 34.6712 17.7829C33.4843 17.7829 32.5741 17.5538 31.9406 17.0955C31.6257 16.8627 31.3686 16.5603 31.1892 16.2118C31.0098 15.8632 30.9129 15.4779 30.9061 15.0857L32.6784 15.0053Z" fill="black"/>
<path d="M45.1964 9.98873H47.0729V17.6261H45.1964V14.5149H41.4233V17.6421H39.5469V10.0048H41.4233V12.9874H45.1964V9.98873Z" fill="black"/>
<path d="M48.8051 17.6422V10.0049H50.6816V17.6422H48.8051Z" fill="black"/>
<path d="M56.6519 9.98868C57.1509 9.97915 57.6477 10.0581 58.1194 10.2218C58.5458 10.3773 58.9159 10.6573 59.1819 11.0257C59.4761 11.4493 59.6253 11.9571 59.6069 12.4728C59.6308 12.9769 59.4901 13.4751 59.206 13.8918C58.9486 14.2478 58.5871 14.5147 58.1715 14.6555C57.6929 14.8054 57.1934 14.8774 56.692 14.8685H54.3463V17.626H52.4698V9.98868H56.6519ZM56.4875 13.4536C57.3175 13.4536 57.7305 13.132 57.7305 12.4889C57.7305 11.8458 57.3295 11.5282 56.4875 11.5282H54.3383V13.4697L56.4875 13.4536Z" fill="black"/>
<path d="M65.048 9.98868C65.5471 9.97915 66.0439 10.0581 66.5156 10.2218C66.9424 10.3764 67.3127 10.6566 67.5781 11.0257C67.8723 11.4493 68.0214 11.9571 68.0031 12.4728C68.027 12.9769 67.8862 13.4751 67.6022 13.8918C67.3448 14.2478 66.9832 14.5147 66.5677 14.6555C66.0892 14.8061 65.5895 14.878 65.0881 14.8685H62.7465V17.626H60.87V9.98868H65.048ZM64.8876 13.4536C65.7136 13.4536 66.1306 13.132 66.1306 12.4889C66.1306 11.8458 65.7297 11.5282 64.8876 11.5282H62.7385V13.4697L64.8876 13.4536Z" fill="black"/>
<path d="M69.2543 17.6422V10.0049H71.1308V17.6422H69.2543Z" fill="black"/>
<path d="M78.8372 9.98873H80.6255V17.6261H77.4619L74.6913 11.1062V17.6261H72.903V9.98873H76.0706L78.8532 16.5046L78.8372 9.98873Z" fill="black"/>
<path d="M86.0946 13.498H90V17.0192C88.8586 17.5066 87.632 17.7621 86.3913 17.7708C84.9719 17.7708 83.8813 17.4171 83.1115 16.7096C82.7233 16.3386 82.4196 15.8879 82.221 15.3885C82.0224 14.889 81.9336 14.3525 81.9607 13.8155C81.9334 13.2844 82.0154 12.7534 82.2017 12.2555C82.3879 11.7576 82.6744 11.3035 83.0433 10.9214C83.7597 10.2085 84.7594 9.85347 86.0425 9.85615C86.9311 9.81857 87.8102 10.0512 88.5646 10.5234C89.2054 10.9424 89.6551 11.5984 89.8156 12.3483L88.0032 12.489C87.8638 12.1434 87.6066 11.8586 87.2774 11.6851C86.8982 11.4811 86.4728 11.3786 86.0425 11.3876C85.7345 11.367 85.4259 11.4179 85.1407 11.5364C84.8556 11.6549 84.6016 11.8379 84.3986 12.071C84.0109 12.5673 83.812 13.1856 83.8372 13.8155C83.8205 14.1404 83.8711 14.4652 83.9856 14.7696C84.1002 15.0739 84.2763 15.3513 84.5028 15.5841C84.7656 15.8163 85.0717 15.9938 85.4035 16.1063C85.7353 16.2188 86.0861 16.264 86.4354 16.2393C87.07 16.2384 87.701 16.1436 88.3079 15.958V14.7521H86.0946V13.498Z" fill="black"/>
</svg>
