<svg width="120" height="24" viewBox="0 0 120 24" fill="none" xmlns="http://www.w3.org/2000/svg">
<path d="M1.89959 24H21.3759V0.060688H1.89959C1.39577 0.060688 0.912551 0.261297 0.556298 0.618394C0.200045 0.975491 0 1.45983 0 1.96484V22.1252C0.00771292 22.6251 0.211157 23.1019 0.566578 23.4527C0.921998 23.8034 1.40082 24 1.89959 24Z" fill="white"/>
<path d="M23.9414 24L31.256 14.0572C31.8502 13.2501 32.1696 12.2728 32.1667 11.2697V1.96488C32.168 1.71529 32.1201 1.4679 32.0257 1.23694C31.9313 1.00597 31.7922 0.795985 31.6166 0.619039C31.441 0.442093 31.2323 0.301671 31.0024 0.205859C30.7724 0.110047 30.5258 0.0607304 30.2768 0.0607338H23.9414V24Z" fill="white"/>
<path d="M49.2344 10.2043L45.7001 6.03459H44.4917V10.2043H41.9894V0.0212059H44.4917V4.14804H45.6413L48.9724 0.0212059H51.9239L47.6196 4.95197L52.2874 10.2257L49.2344 10.2043Z" fill="white"/>
<path d="M53.6829 10.2043V0.0212059H56.1852V10.2043H53.6829Z" fill="white"/>
<path d="M67.4724 0V2.05806H63.8365V10.2045H61.3235V2.05806H57.6877V0H67.4724Z" fill="white"/>
<path d="M75.5889 10.2043L74.8029 8.01761H69.8784L69.0925 10.2043H66.6703L70.52 0.0212059H74.2628L78.134 10.2043H75.5889ZM70.5842 6.1257H74.1185L72.3594 1.21102L70.5842 6.1257Z" fill="white"/>
<path d="M43.5615 20.0071C43.6898 21.1915 44.588 21.7864 46.2669 21.7864C46.8119 21.7989 47.3548 21.7154 47.871 21.5399C48.3148 21.3738 48.5394 21.1165 48.5394 20.7681C48.54 20.6427 48.5071 20.5194 48.4441 20.411C48.3811 20.3026 48.2904 20.2131 48.1812 20.1518C47.8145 19.9422 47.4203 19.7852 47.0102 19.6855L44.1764 18.9137C42.4868 18.4475 41.6473 17.5256 41.6473 16.1429C41.6286 15.5122 41.8482 14.8977 42.2622 14.4225C42.6794 13.9542 43.218 13.611 43.8181 13.431C44.5126 13.2281 45.2335 13.1305 45.9568 13.1415C47.108 13.0962 48.2462 13.3987 49.2238 14.0098C49.6348 14.2767 49.9779 14.6362 50.2257 15.0596C50.4736 15.483 50.6194 15.9585 50.6514 16.4484L48.2988 16.5663C48.2641 16.3508 48.186 16.1446 48.0693 15.9603C47.9525 15.776 47.7996 15.6175 47.6197 15.4944C47.1041 15.1759 46.5024 15.0261 45.898 15.0656C45.4535 15.0456 45.0103 15.13 44.6041 15.3121C44.4695 15.3673 44.3538 15.4605 44.2712 15.5804C44.1886 15.7003 44.1426 15.8418 44.1389 15.9874C44.1404 16.1045 44.1705 16.2194 44.2264 16.3221C44.2823 16.4249 44.3623 16.5124 44.4597 16.577C44.7655 16.7772 45.1039 16.9223 45.4596 17.0058L48.1651 17.7346C48.9494 17.9056 49.6823 18.26 50.3038 18.769C50.5449 19.0012 50.7332 19.2827 50.8559 19.5944C50.9786 19.9061 51.0329 20.2406 51.0149 20.5752C51.038 21.0492 50.9299 21.5203 50.7025 21.9365C50.4751 22.3527 50.1373 22.6977 49.7264 22.9334C48.6486 23.5048 47.4365 23.7734 46.2188 23.7105C44.6362 23.7105 43.4224 23.405 42.5776 22.794C42.1577 22.4836 41.8149 22.0804 41.5757 21.6157C41.3364 21.1509 41.2072 20.6372 41.1981 20.1143L43.5615 20.0071Z" fill="white"/>
<path d="M60.2541 13.3183H62.7565V23.5014H60.2541V19.3531H55.2227V23.5228H52.7204V13.3397H55.2227V17.3165H60.2541V13.3183Z" fill="white"/>
<path d="M65.0663 23.5229V13.3399H67.5686V23.5229H65.0663Z" fill="white"/>
<path d="M75.5301 13.3182C76.1956 13.3055 76.8581 13.4108 77.4871 13.6291C78.0557 13.8364 78.5492 14.2098 78.904 14.701C79.2964 15.2657 79.4952 15.9427 79.4708 16.6304C79.5026 17.3026 79.3149 17.9668 78.9361 18.5223C78.5928 18.9971 78.1107 19.353 77.5566 19.5406C76.9184 19.7406 76.2523 19.8365 75.5837 19.8247H72.4557V23.5013H69.9534V13.3182H75.5301ZM75.311 17.9382C76.4178 17.9382 76.9685 17.5094 76.9685 16.6519C76.9685 15.7943 76.4338 15.3709 75.311 15.3709H72.4451V17.9596L75.311 17.9382Z" fill="white"/>
<path d="M86.7264 13.3182C87.3919 13.3055 88.0544 13.4108 88.6833 13.6291C89.2526 13.8352 89.7464 14.2088 90.1002 14.701C90.4925 15.2657 90.6914 15.9427 90.667 16.6304C90.6989 17.3026 90.5112 17.9668 90.1323 18.5223C89.7891 18.9971 89.307 19.353 88.7529 19.5406C88.1148 19.7414 87.4485 19.8374 86.7798 19.8247H83.6573V23.5013H81.1549V13.3182H86.7264ZM86.5125 17.9382C87.6139 17.9382 88.17 17.5094 88.17 16.6519C88.17 15.7943 87.6353 15.3709 86.5125 15.3709H83.6466V17.9596L86.5125 17.9382Z" fill="white"/>
<path d="M92.3355 23.5229V13.3399H94.8378V23.5229H92.3355Z" fill="white"/>
<path d="M105.114 13.3183H107.499V23.5014H103.28L99.5857 14.8082V23.5014H97.2009V13.3183H101.425L105.136 22.0061L105.114 13.3183Z" fill="white"/>
<path d="M114.792 17.9973H120V22.6922C118.478 23.3422 116.842 23.6828 115.188 23.6944C113.295 23.6944 111.841 23.2228 110.814 22.2795C110.297 21.7848 109.891 21.1839 109.627 20.518C109.362 19.852 109.243 19.1366 109.28 18.4207C109.243 17.7126 109.353 17.0046 109.601 16.3407C109.849 15.6768 110.231 15.0713 110.723 14.5618C111.678 13.6114 113.012 13.138 114.723 13.1415C115.908 13.0914 117.08 13.4015 118.086 14.0312C118.94 14.5898 119.54 15.4645 119.754 16.4644L117.337 16.652C117.151 16.1912 116.808 15.8114 116.369 15.5801C115.864 15.3081 115.296 15.1715 114.723 15.1835C114.312 15.156 113.9 15.2238 113.52 15.3819C113.14 15.5399 112.801 15.7838 112.53 16.0946C112.014 16.7564 111.748 17.5809 111.782 18.4207C111.76 18.8538 111.827 19.2869 111.98 19.6927C112.132 20.0986 112.367 20.4683 112.669 20.7788C113.02 21.0884 113.428 21.325 113.871 21.475C114.313 21.625 114.781 21.6853 115.247 21.6525C116.093 21.6512 116.934 21.5248 117.744 21.2773V19.6694H114.792V17.9973Z" fill="white"/>
</svg>
